<svg width="210" height="35" viewBox="0 0 210 35" fill="none" xmlns="http://www.w3.org/2000/svg">
<path d="M0.935546 27.0038C0.683398 27.0038 0.456464 26.9155 0.254746 26.739C0.0782421 26.5625 -0.0100098 26.3356 -0.0100098 26.0582V1.47377C-0.0100098 1.19641 0.0782421 0.969475 0.254746 0.792972C0.456464 0.616468 0.683398 0.528216 0.935546 0.528216H4.45301C4.83124 0.528216 5.1086 0.629075 5.2851 0.830794C5.48682 1.03251 5.6255 1.1838 5.70115 1.28466L12.6604 14.1064L19.6954 1.28466C19.7458 1.1838 19.8593 1.03251 20.0358 0.830794C20.2375 0.629075 20.5275 0.528216 20.9057 0.528216H24.4231C24.7005 0.528216 24.9274 0.616468 25.1039 0.792972C25.2805 0.969475 25.3687 1.19641 25.3687 1.47377V26.0582C25.3687 26.3356 25.2805 26.5625 25.1039 26.739C24.9274 26.9155 24.7005 27.0038 24.4231 27.0038H20.5653C20.3131 27.0038 20.0988 26.9155 19.9223 26.739C19.7458 26.5625 19.6575 26.3356 19.6575 26.0582V10.778L14.8541 19.7797C14.728 20.0067 14.5642 20.2084 14.3624 20.3849C14.1607 20.5614 13.896 20.6496 13.5682 20.6496H11.7905C11.4627 20.6496 11.198 20.5614 10.9963 20.3849C10.7945 20.2084 10.6306 20.0067 10.5046 19.7797L5.70115 10.778V26.0582C5.70115 26.3356 5.61289 26.5625 5.43639 26.739C5.25989 26.9155 5.04556 27.0038 4.79341 27.0038H0.935546Z" fill="black"/>
<path d="M33.0215 34.19C32.8198 34.19 32.6307 34.1144 32.4542 33.9631C32.3029 33.8118 32.2272 33.6227 32.2272 33.3957C32.2272 33.3453 32.2398 33.2697 32.265 33.1688C32.2903 33.0931 32.3281 32.9923 32.3785 32.8662L35.3287 25.7935L28.0668 8.65999C27.9911 8.45828 27.9533 8.29438 27.9533 8.1683C27.9785 7.94137 28.0668 7.75226 28.2181 7.60097C28.3694 7.42447 28.5585 7.33622 28.7854 7.33622H32.4542C32.782 7.33622 33.0215 7.42447 33.1728 7.60097C33.3241 7.75226 33.4375 7.91616 33.5132 8.09266L38.2031 19.8176L43.0066 8.09266C43.1074 7.89094 43.2335 7.71444 43.3848 7.56315C43.5361 7.41186 43.7756 7.33622 44.1034 7.33622H47.6965C47.9234 7.33622 48.1126 7.42447 48.2639 7.60097C48.4404 7.75226 48.5286 7.92876 48.5286 8.13048C48.5286 8.25656 48.4782 8.43306 48.3773 8.65999L37.6736 33.4335C37.598 33.6353 37.4719 33.8118 37.2954 33.9631C37.1441 34.1144 36.9046 34.19 36.5768 34.19H33.0215Z" fill="black"/>
<path d="M61.3489 27.382C58.9787 27.382 56.9615 26.9912 55.2973 26.2095C53.6583 25.4026 52.385 24.2427 51.4773 22.7299C50.5695 21.1918 50.0652 19.3259 49.9644 17.1322C49.9392 16.0984 49.9265 14.9889 49.9265 13.8038C49.9265 12.6187 49.9392 11.4841 49.9644 10.3998C50.0652 8.23134 50.5695 6.39066 51.4773 4.87777C52.4102 3.33967 53.7088 2.16718 55.3729 1.36031C57.0371 0.553431 59.0291 0.149994 61.3489 0.149994C63.0383 0.149994 64.5764 0.36432 65.9632 0.792972C67.35 1.22162 68.5477 1.83939 69.5563 2.64626C70.5649 3.45313 71.3465 4.39869 71.9013 5.48293C72.456 6.56716 72.7586 7.77748 72.809 9.11386C72.809 9.34079 72.7207 9.52991 72.5442 9.68119C72.3929 9.83248 72.2038 9.90813 71.9769 9.90813H67.6652C67.3626 9.90813 67.1231 9.83248 66.9465 9.68119C66.77 9.52991 66.6314 9.27776 66.5305 8.92475C66.1523 7.43708 65.5219 6.41588 64.6394 5.86115C63.7569 5.30642 62.66 5.02906 61.3489 5.02906C59.7855 5.02906 58.55 5.45771 57.6423 6.31502C56.7345 7.17232 56.2429 8.59696 56.1672 10.5889C56.0916 12.6565 56.0916 14.7746 56.1672 16.9431C56.2429 18.935 56.7345 20.3597 57.6423 21.217C58.55 22.0743 59.7855 22.5029 61.3489 22.5029C62.66 22.5029 63.7569 22.2256 64.6394 21.6708C65.5471 21.0909 66.1775 20.0697 66.5305 18.6072C66.6314 18.229 66.77 17.9769 66.9465 17.8508C67.1231 17.6995 67.3626 17.6239 67.6652 17.6239H71.9769C72.2038 17.6239 72.3929 17.6995 72.5442 17.8508C72.7207 18.0021 72.809 18.1912 72.809 18.4181C72.7586 19.7545 72.456 20.9648 71.9013 22.0491C71.3465 23.1333 70.5649 24.0789 69.5563 24.8857C68.5477 25.6926 67.35 26.3104 65.9632 26.739C64.5764 27.1677 63.0383 27.382 61.3489 27.382Z" fill="#3A60F8"/>
<path d="M84.5097 27.382C82.4168 27.382 80.6644 27.0416 79.2524 26.3608C77.8403 25.6548 76.7561 24.6588 75.9997 23.3728C75.2684 22.0869 74.865 20.5866 74.7893 18.872C74.7641 18.3677 74.7515 17.8004 74.7515 17.17C74.7515 16.5144 74.7641 15.9471 74.7893 15.468C74.865 13.7282 75.2936 12.2279 76.0753 10.9671C76.857 9.68119 77.9538 8.69782 79.3658 8.01702C80.7779 7.311 82.4925 6.95799 84.5097 6.95799C86.5016 6.95799 88.2036 7.311 89.6157 8.01702C91.0277 8.69782 92.1245 9.68119 92.9062 10.9671C93.6878 12.2279 94.1165 13.7282 94.1921 15.468C94.2426 15.9471 94.2678 16.5144 94.2678 17.17C94.2678 17.8004 94.2426 18.3677 94.1921 18.872C94.1165 20.5866 93.7005 22.0869 92.944 23.3728C92.2128 24.6588 91.1411 25.6548 89.7291 26.3608C88.3171 27.0416 86.5773 27.382 84.5097 27.382ZM84.5097 23.2216C85.7452 23.2216 86.6781 22.8433 87.3085 22.0869C87.9389 21.3052 88.2793 20.1706 88.3297 18.6829C88.3549 18.3047 88.3675 17.8004 88.3675 17.17C88.3675 16.5396 88.3549 16.0353 88.3297 15.6571C88.2793 14.1946 87.9389 13.0726 87.3085 12.2909C86.6781 11.5093 85.7452 11.1184 84.5097 11.1184C83.2741 11.1184 82.3286 11.5093 81.673 12.2909C81.0426 13.0726 80.7022 14.1946 80.6518 15.6571C80.6266 16.0353 80.614 16.5396 80.614 17.17C80.614 17.8004 80.6266 18.3047 80.6518 18.6829C80.7022 20.1706 81.0426 21.3052 81.673 22.0869C82.3286 22.8433 83.2741 23.2216 84.5097 23.2216Z" fill="#3A60F8"/>
<path d="M97.9965 27.0038C97.7444 27.0038 97.53 26.9155 97.3535 26.739C97.177 26.5625 97.0888 26.3356 97.0888 26.0582V8.28177C97.0888 8.00441 97.177 7.77748 97.3535 7.60097C97.53 7.42447 97.7444 7.33622 97.9965 7.33622H101.703C101.98 7.33622 102.207 7.42447 102.384 7.60097C102.56 7.77748 102.649 8.00441 102.649 8.28177V9.75684C103.304 8.94996 104.149 8.28177 105.183 7.75226C106.217 7.22275 107.477 6.95799 108.965 6.95799C110.453 6.95799 111.751 7.29839 112.861 7.97919C113.995 8.63478 114.878 9.60555 115.508 10.8915C116.164 12.1522 116.492 13.6903 116.492 15.5058V26.0582C116.492 26.3356 116.391 26.5625 116.189 26.739C116.013 26.9155 115.798 27.0038 115.546 27.0038H111.537C111.26 27.0038 111.033 26.9155 110.856 26.739C110.68 26.5625 110.591 26.3356 110.591 26.0582V15.7327C110.591 14.3964 110.264 13.3626 109.608 12.6313C108.978 11.8749 108.045 11.4967 106.809 11.4967C105.624 11.4967 104.678 11.8749 103.972 12.6313C103.266 13.3626 102.913 14.3964 102.913 15.7327V26.0582C102.913 26.3356 102.825 26.5625 102.649 26.739C102.472 26.9155 102.258 27.0038 102.006 27.0038H97.9965Z" fill="#3A60F8"/>
<path d="M129.122 27.0038C127.559 27.0038 126.223 26.7516 125.113 26.2473C124.004 25.7178 123.159 24.9109 122.579 23.8267C122.024 22.7425 121.747 21.3809 121.747 19.7419V11.7992H118.797C118.52 11.7992 118.293 11.711 118.116 11.5345C117.94 11.358 117.851 11.131 117.851 10.8537V8.28177C117.851 8.00441 117.94 7.77748 118.116 7.60097C118.293 7.42447 118.52 7.33622 118.797 7.33622H121.747V1.09555C121.747 0.818186 121.835 0.591253 122.012 0.414751C122.214 0.238246 122.441 0.149994 122.693 0.149994H126.399C126.677 0.149994 126.904 0.238246 127.08 0.414751C127.257 0.591253 127.345 0.818186 127.345 1.09555V7.33622H132.073C132.325 7.33622 132.539 7.42447 132.716 7.60097C132.892 7.77748 132.98 8.00441 132.98 8.28177V10.8537C132.98 11.131 132.892 11.358 132.716 11.5345C132.539 11.711 132.325 11.7992 132.073 11.7992H127.345V19.288C127.345 20.2462 127.509 21.0026 127.836 21.5574C128.189 22.0869 128.795 22.3516 129.652 22.3516H132.413C132.665 22.3516 132.879 22.4399 133.056 22.6164C133.232 22.7929 133.321 23.0072 133.321 23.2594V26.0582C133.321 26.3356 133.232 26.5625 133.056 26.739C132.879 26.9155 132.665 27.0038 132.413 27.0038H129.122Z" fill="#3A60F8"/>
<path d="M141.273 27.382C139.936 27.382 138.738 27.1298 137.679 26.6256C136.62 26.096 135.776 25.39 135.145 24.5075C134.515 23.625 134.2 22.6416 134.2 21.5574C134.2 19.7671 134.918 18.3551 136.356 17.3213C137.818 16.2875 139.734 15.5815 142.105 15.2032L147.059 14.4846V13.8038C147.059 12.8204 146.832 12.064 146.379 11.5345C145.925 11.005 145.13 10.7402 143.996 10.7402C143.164 10.7402 142.495 10.9041 141.991 11.2319C141.487 11.5597 141.096 11.9884 140.819 12.5179C140.617 12.8457 140.327 13.0096 139.949 13.0096H136.356C136.078 13.0096 135.864 12.9339 135.713 12.7826C135.561 12.6061 135.498 12.4044 135.524 12.1775C135.524 11.7488 135.687 11.2445 136.015 10.6646C136.343 10.0846 136.847 9.5173 137.528 8.96257C138.209 8.38263 139.079 7.90355 140.138 7.52533C141.197 7.1471 142.495 6.95799 144.034 6.95799C145.622 6.95799 146.984 7.1471 148.118 7.52533C149.253 7.90355 150.161 8.43306 150.842 9.11386C151.522 9.79466 152.027 10.5889 152.354 11.4967C152.682 12.3792 152.846 13.3373 152.846 14.3711V26.0582C152.846 26.3356 152.758 26.5625 152.581 26.739C152.405 26.9155 152.178 27.0038 151.901 27.0038H148.194C147.942 27.0038 147.728 26.9155 147.551 26.739C147.375 26.5625 147.286 26.3356 147.286 26.0582V24.6588C146.958 25.1379 146.517 25.5917 145.962 26.0204C145.408 26.4238 144.74 26.7516 143.958 27.0038C143.201 27.2559 142.306 27.382 141.273 27.382ZM142.785 23.4485C143.618 23.4485 144.361 23.272 145.017 22.919C145.673 22.566 146.189 22.0238 146.568 21.2926C146.946 20.5614 147.135 19.641 147.135 18.5316V17.8886L143.618 18.4559C142.256 18.6829 141.26 19.0233 140.63 19.4771C139.999 19.931 139.684 20.4857 139.684 21.1413C139.684 21.6204 139.823 22.0365 140.1 22.3895C140.403 22.7425 140.793 23.0072 141.273 23.1837C141.752 23.3602 142.256 23.4485 142.785 23.4485Z" fill="#3A60F8"/>
<path d="M165.028 27.382C163.187 27.382 161.561 27.0416 160.149 26.3608C158.762 25.68 157.665 24.6966 156.858 23.4107C156.051 22.0995 155.61 20.5362 155.534 18.7207C155.509 18.3173 155.497 17.813 155.497 17.2078C155.497 16.5774 155.509 16.0605 155.534 15.6571C155.61 13.8164 156.039 12.2531 156.82 10.9671C157.627 9.65598 158.737 8.65999 160.149 7.97919C161.561 7.29839 163.187 6.95799 165.028 6.95799C166.717 6.95799 168.154 7.19753 169.34 7.67662C170.525 8.13048 171.495 8.71042 172.252 9.41644C173.008 10.1225 173.563 10.8663 173.916 11.6479C174.294 12.4044 174.496 13.0726 174.521 13.6525C174.546 13.9047 174.458 14.1316 174.256 14.3333C174.08 14.5098 173.866 14.5981 173.614 14.5981H169.567C169.314 14.5981 169.113 14.535 168.961 14.409C168.835 14.2577 168.709 14.056 168.583 13.8038C168.23 12.9213 167.776 12.2909 167.222 11.9127C166.667 11.5345 165.973 11.3454 165.141 11.3454C164.007 11.3454 163.112 11.711 162.456 12.4422C161.8 13.1734 161.447 14.3081 161.397 15.8462C161.372 16.8296 161.372 17.7247 161.397 18.5316C161.473 20.0949 161.826 21.2296 162.456 21.9356C163.112 22.6416 164.007 22.9946 165.141 22.9946C166.024 22.9946 166.73 22.8055 167.259 22.4273C167.789 22.0491 168.23 21.4187 168.583 20.5362C168.684 20.284 168.81 20.0949 168.961 19.9688C169.113 19.8176 169.314 19.7419 169.567 19.7419H173.614C173.866 19.7419 174.08 19.8428 174.256 20.0445C174.458 20.221 174.546 20.4353 174.521 20.6875C174.496 21.1161 174.37 21.6204 174.143 22.2003C173.941 22.7803 173.601 23.3728 173.122 23.978C172.668 24.5831 172.075 25.1505 171.344 25.68C170.613 26.1843 169.718 26.6003 168.659 26.9281C167.625 27.2307 166.415 27.382 165.028 27.382Z" fill="#3A60F8"/>
<path d="M186.552 27.0038C184.988 27.0038 183.652 26.7516 182.542 26.2473C181.433 25.7178 180.588 24.9109 180.008 23.8267C179.454 22.7425 179.176 21.3809 179.176 19.7419V11.7992H176.226C175.949 11.7992 175.722 11.711 175.545 11.5345C175.369 11.358 175.281 11.131 175.281 10.8537V8.28177C175.281 8.00441 175.369 7.77748 175.545 7.60097C175.722 7.42447 175.949 7.33622 176.226 7.33622H179.176V1.09555C179.176 0.818186 179.265 0.591253 179.441 0.414751C179.643 0.238246 179.87 0.149994 180.122 0.149994H183.828C184.106 0.149994 184.333 0.238246 184.509 0.414751C184.686 0.591253 184.774 0.818186 184.774 1.09555V7.33622H189.502C189.754 7.33622 189.968 7.42447 190.145 7.60097C190.321 7.77748 190.409 8.00441 190.409 8.28177V10.8537C190.409 11.131 190.321 11.358 190.145 11.5345C189.968 11.711 189.754 11.7992 189.502 11.7992H184.774V19.288C184.774 20.2462 184.938 21.0026 185.266 21.5574C185.619 22.0869 186.224 22.3516 187.081 22.3516H189.842C190.094 22.3516 190.309 22.4399 190.485 22.6164C190.662 22.7929 190.75 23.0072 190.75 23.2594V26.0582C190.75 26.3356 190.662 26.5625 190.485 26.739C190.309 26.9155 190.094 27.0038 189.842 27.0038H186.552Z" fill="#3A60F8"/>
<path d="M200.668 27.382C199.105 27.382 197.756 27.2055 196.622 26.8525C195.512 26.4743 194.604 26.0204 193.898 25.4909C193.218 24.9614 192.701 24.4319 192.348 23.9024C192.02 23.3476 191.843 22.8811 191.818 22.5029C191.793 22.2256 191.881 21.9986 192.083 21.8221C192.285 21.6456 192.486 21.5574 192.688 21.5574H196.357C196.432 21.5574 196.508 21.57 196.584 21.5952C196.659 21.6204 196.735 21.6834 196.811 21.7843C197.138 22.0112 197.479 22.276 197.832 22.5786C198.185 22.8559 198.588 23.0955 199.042 23.2972C199.521 23.4989 200.114 23.5998 200.82 23.5998C201.652 23.5998 202.358 23.4359 202.938 23.1081C203.518 22.7551 203.808 22.2634 203.808 21.633C203.808 21.1792 203.669 20.8009 203.392 20.4984C203.14 20.1958 202.648 19.9184 201.917 19.6663C201.185 19.4141 200.101 19.1367 198.664 18.8342C197.302 18.5316 196.142 18.1282 195.184 17.6239C194.226 17.1196 193.507 16.4892 193.028 15.7327C192.549 14.9511 192.31 14.0181 192.31 12.9339C192.31 11.9505 192.612 11.005 193.218 10.0972C193.848 9.18951 194.768 8.44567 195.979 7.86573C197.189 7.26057 198.702 6.95799 200.517 6.95799C201.904 6.95799 203.114 7.1345 204.148 7.4875C205.207 7.8153 206.09 8.24395 206.796 8.77346C207.502 9.27776 208.031 9.80727 208.384 10.362C208.762 10.8915 208.964 11.358 208.989 11.7614C209.015 12.0136 208.939 12.2279 208.762 12.4044C208.586 12.5809 208.384 12.6692 208.157 12.6692H204.791C204.665 12.6692 204.552 12.6565 204.451 12.6313C204.35 12.5809 204.262 12.5179 204.186 12.4422C203.883 12.2405 203.568 12.0136 203.24 11.7614C202.938 11.4841 202.572 11.2445 202.144 11.0428C201.715 10.8411 201.16 10.7402 200.479 10.7402C199.647 10.7402 199.004 10.9293 198.55 11.3075C198.122 11.6606 197.907 12.1144 197.907 12.6692C197.907 13.0222 198.021 13.35 198.248 13.6525C198.475 13.9551 198.941 14.2325 199.647 14.4846C200.353 14.7368 201.425 15.0015 202.862 15.2789C204.577 15.5815 205.938 16.0353 206.947 16.6405C207.956 17.2456 208.674 17.9517 209.103 18.7585C209.557 19.5402 209.784 20.3849 209.784 21.2926C209.784 22.4777 209.431 23.5367 208.725 24.4697C208.019 25.3774 206.985 26.096 205.623 26.6256C204.287 27.1298 202.635 27.382 200.668 27.382Z" fill="#3A60F8"/>
</svg>
