<svg width="11" height="11" viewBox="0 0 11 11" fill="none" xmlns="http://www.w3.org/2000/svg">
<path d="M0.674372 5.93793L0.162541 5.4261C-0.0541803 5.20938 -0.0541803 4.85894 0.162541 4.64452L4.64222 0.162541C4.85894 -0.0541803 5.20938 -0.0541803 5.4238 0.162541L9.90348 4.64222C10.1202 4.85894 10.1202 5.20938 9.90348 5.4238L9.39164 5.93563C9.17262 6.15466 8.81526 6.15004 8.60084 5.92641L5.95638 3.15053V9.77667C5.95638 10.0833 5.70969 10.33 5.40305 10.33H4.66527C4.35864 10.33 4.11194 10.0833 4.11194 9.77667V3.15053L1.46517 5.92871C1.25076 6.15466 0.893399 6.15927 0.674372 5.93793Z" fill="#5061FC"/>
</svg>
