<svg width="12" height="11" viewBox="0 0 12 11" fill="none" xmlns="http://www.w3.org/2000/svg">
<path d="M8.12436 1.67693L9.94457 3.49715C10.0213 3.57383 10.0213 3.69894 9.94457 3.77563L5.53732 8.18288L3.66464 8.39073C3.41441 8.41898 3.20252 8.20709 3.23077 7.95686L3.43862 6.08419L7.84588 1.67693C7.92256 1.60025 8.04767 1.60025 8.12436 1.67693ZM11.3935 1.21482L10.4087 0.230049C10.102 -0.0766829 9.60353 -0.0766829 9.29478 0.230049L8.58042 0.944411C8.50374 1.02109 8.50374 1.14621 8.58042 1.22289L10.4006 3.0431C10.4773 3.11978 10.6024 3.11978 10.6791 3.0431L11.3935 2.32874C11.7002 2.01999 11.7002 1.52155 11.3935 1.21482ZM7.74901 6.9842V9.0385H1.2915V2.58099H5.9288C5.99338 2.58099 6.05392 2.55475 6.10033 2.51036L6.90752 1.70317C7.06089 1.5498 6.95191 1.28948 6.73599 1.28948H0.968627C0.433864 1.28948 0 1.72335 0 2.25811V9.36137C0 9.89614 0.433864 10.33 0.968627 10.33H8.07189C8.60665 10.33 9.04052 9.89614 9.04052 9.36137V6.17701C9.04052 5.96109 8.7802 5.85414 8.62683 6.00549L7.81964 6.81267C7.77525 6.85909 7.74901 6.91963 7.74901 6.9842Z" fill="#5061FC"/>
</svg>
