<svg width="10" height="11" viewBox="0 0 10 11" fill="none" xmlns="http://www.w3.org/2000/svg">
<path d="M0.645625 9.36156C0.645625 9.61841 0.747656 9.86473 0.929273 10.0464C1.11089 10.228 1.35722 10.33 1.61406 10.33H7.42468C7.68153 10.33 7.92786 10.228 8.10947 10.0464C8.29109 9.86473 8.39312 9.61841 8.39312 9.36156V2.5825H0.645625V9.36156ZM6.13344 4.19656C6.13344 4.11095 6.16745 4.02884 6.22798 3.9683C6.28852 3.90776 6.37063 3.87375 6.45625 3.87375C6.54186 3.87375 6.62397 3.90776 6.68451 3.9683C6.74505 4.02884 6.77906 4.11095 6.77906 4.19656V8.71594C6.77906 8.80155 6.74505 8.88366 6.68451 8.9442C6.62397 9.00474 6.54186 9.03875 6.45625 9.03875C6.37063 9.03875 6.28852 9.00474 6.22798 8.9442C6.16745 8.88366 6.13344 8.80155 6.13344 8.71594V4.19656ZM4.19656 4.19656C4.19656 4.11095 4.23057 4.02884 4.29111 3.9683C4.35165 3.90776 4.43376 3.87375 4.51937 3.87375C4.60499 3.87375 4.6871 3.90776 4.74764 3.9683C4.80818 4.02884 4.84219 4.11095 4.84219 4.19656V8.71594C4.84219 8.80155 4.80818 8.88366 4.74764 8.9442C4.6871 9.00474 4.60499 9.03875 4.51937 9.03875C4.43376 9.03875 4.35165 9.00474 4.29111 8.9442C4.23057 8.88366 4.19656 8.80155 4.19656 8.71594V4.19656ZM2.25969 4.19656C2.25969 4.11095 2.2937 4.02884 2.35424 3.9683C2.41478 3.90776 2.49688 3.87375 2.5825 3.87375C2.66811 3.87375 2.75022 3.90776 2.81076 3.9683C2.8713 4.02884 2.90531 4.11095 2.90531 4.19656V8.71594C2.90531 8.80155 2.8713 8.88366 2.81076 8.9442C2.75022 9.00474 2.66811 9.03875 2.5825 9.03875C2.49688 9.03875 2.41478 9.00474 2.35424 8.9442C2.2937 8.88366 2.25969 8.80155 2.25969 8.71594V4.19656ZM8.71593 0.645628H6.29484L6.10519 0.268341C6.06501 0.187681 6.00313 0.119832 5.9265 0.0724262C5.84986 0.0250203 5.76152 -6.10915e-05 5.67141 3.53736e-06H3.36532C3.27541 -0.000342084 3.18723 0.0246458 3.11086 0.0721044C3.0345 0.119563 2.97305 0.187573 2.93356 0.268341L2.74391 0.645628H0.322812C0.237197 0.645628 0.155089 0.679639 0.0945496 0.740178C0.0340105 0.800717 0 0.882826 0 0.968441L0 1.61407C0 1.69968 0.0340105 1.78179 0.0945496 1.84233C0.155089 1.90287 0.237197 1.93688 0.322812 1.93688H8.71593C8.80155 1.93688 8.88366 1.90287 8.9442 1.84233C9.00474 1.78179 9.03875 1.69968 9.03875 1.61407V0.968441C9.03875 0.882826 9.00474 0.800717 8.9442 0.740178C8.88366 0.679639 8.80155 0.645628 8.71593 0.645628Z" fill="#FF0000"/>
</svg>
